<?xml version="1.0" encoding="UTF-8"?>
<svg xmlns="http://www.w3.org/2000/svg" xmlns:xlink="http://www.w3.org/1999/xlink" viewBox="0 0 48 48" width="48px" height="48px">
<g id="surface199758095">
<path style="fill-rule:nonzero;fill:rgb(37.64706%,49.019608%,54.509807%);fill-opacity:1;stroke-width:16;stroke-linecap:butt;stroke-linejoin:round;stroke:rgb(44.705883%,44.705883%,44.705883%);stroke-opacity:1;stroke-miterlimit:10;" d="M 21.504895 78.840674 L 150.495101 78.840674 L 150.495101 93.159322 L 21.504895 93.159322 Z M 21.504895 35.83884 L 150.495101 35.83884 L 150.495101 50.172785 L 21.504895 50.172785 Z M 21.504895 121.827211 L 150.495101 121.827211 L 150.495101 136.161156 L 21.504895 136.161156 Z M 21.504895 121.827211 " transform="matrix(0.255349,0,0,0.255349,2.04,2.04)"/>
<path style=" stroke:none;fill-rule:nonzero;fill:rgb(44.705883%,44.705883%,44.705883%);fill-opacity:1;" d="M 7.53125 22.171875 L 40.46875 22.171875 L 40.46875 25.828125 L 7.53125 25.828125 Z M 7.53125 11.191406 L 40.46875 11.191406 L 40.46875 14.851562 L 7.53125 14.851562 Z M 7.53125 33.148438 L 40.46875 33.148438 L 40.46875 36.808594 L 7.53125 36.808594 Z M 7.53125 33.148438 "/>
</g>
</svg>
